<svg width="40" height="40" viewBox="0 0 40 40" fill="none" xmlns="http://www.w3.org/2000/svg">
<path d="M37.7922 0H2.20778C0.988334 0 0 0.988334 0 2.20778V37.7928C0 39.0117 0.988334 40 2.20778 40H21.365V24.51H16.1522V18.4733H21.365V14.0211C21.365 8.85444 24.5206 6.04167 29.1294 6.04167C31.3372 6.04167 33.2344 6.20556 33.7878 6.27944V11.6789L30.5911 11.6806C28.0844 11.6806 27.5994 12.8717 27.5994 14.6194V18.4739H33.5772L32.7989 24.5106H27.5994V40H37.7928C39.0117 40 40 39.0117 40 37.7922V2.20778C40 0.988334 39.0117 0 37.7922 0Z" fill="white"/>
</svg>
