<svg width="45" height="45" viewBox="0 0 45 45" fill="none" xmlns="http://www.w3.org/2000/svg">
<path fill-rule="evenodd" clip-rule="evenodd" d="M22.4999 3.06816C11.7681 3.06816 3.06816 11.7681 3.06816 22.4999C3.06816 33.2316 11.7681 41.9316 22.4999 41.9316C33.2319 41.9316 41.9318 33.2316 41.9318 22.4999C41.9318 11.7681 33.2319 3.06816 22.4999 3.06816ZM0 22.4999C0 10.0735 10.0736 0 22.4999 0C34.9262 0 45 10.0735 45 22.4999C45 34.9263 34.9262 44.9998 22.4999 44.9998C10.0736 44.9998 0 34.9263 0 22.4999Z" fill="white"/>
<path fill-rule="evenodd" clip-rule="evenodd" d="M42.9542 23.8634H2.04536V21.1362H42.9542V23.8634Z" fill="white"/>
<path fill-rule="evenodd" clip-rule="evenodd" d="M21.1361 42.9543V2.04533H23.8634V42.9543H21.1361ZM32.3012 22.4997C32.3012 15.0927 29.6375 7.76502 24.4154 2.91996L26.0385 1.17059C31.8396 6.55275 34.6875 14.566 34.6875 22.4997C34.6875 30.4336 31.8396 38.4468 26.0385 43.8291L24.4154 42.0795C29.6375 37.2345 32.3012 29.9068 32.3012 22.4997ZM10.5672 22.4998C10.5672 14.5775 13.3223 6.56843 18.9467 1.18348L20.597 2.90718C15.5394 7.74951 12.9536 15.0813 12.9536 22.4998C12.9536 29.9184 15.5395 37.2502 20.5971 42.0925L18.9468 43.8161C13.3224 38.4311 10.5673 30.4222 10.5672 22.4998Z" fill="white"/>
<path fill-rule="evenodd" clip-rule="evenodd" d="M22.4999 10.4249C29.8953 10.4249 37.4158 11.7924 42.5134 14.6402C43.0889 14.9615 43.2948 15.6884 42.9733 16.2637C42.6522 16.839 41.925 17.0449 41.3499 16.7235C36.748 14.1529 29.6864 12.8113 22.4999 12.8113C15.3135 12.8113 8.25189 14.1529 3.65003 16.7235C3.07472 17.0449 2.34783 16.839 2.02646 16.2637C1.70512 15.6884 1.91096 14.9615 2.48628 14.6402C7.58418 11.7924 15.1045 10.4249 22.4999 10.4249ZM22.4999 33.9203C29.8953 33.9203 37.4158 32.5526 42.5134 29.705C43.0889 29.3836 43.2948 28.6567 42.9733 28.0814C42.6522 27.5061 41.925 27.3003 41.3499 27.6216C36.748 30.1922 29.6864 31.5339 22.4999 31.5339C15.3135 31.5339 8.25189 30.1922 3.65003 27.6216C3.07472 27.3003 2.34783 27.5061 2.02646 28.0814C1.70512 28.6567 1.91096 29.3836 2.48628 29.705C7.58418 32.5526 15.1045 33.9203 22.4999 33.9203Z" fill="white"/>
</svg>
