<svg width="40" height="31" viewBox="0 0 40 31" fill="none" xmlns="http://www.w3.org/2000/svg">
<path d="M38.6722 0H1.32779C0.595325 0 0 0.595845 0 1.32831V4.00052C0 4.12364 0.133507 4.26494 0.242597 4.32208L19.8717 15.534C19.9226 15.5636 19.9797 15.5771 20.0369 15.5771C20.0951 15.5771 20.1538 15.5621 20.2052 15.5314L39.241 4.33299C39.3481 4.27325 39.6317 4.11533 39.7382 4.0426C39.867 3.95481 40 3.87533 40 3.71792V1.32779C40 0.595845 39.4047 0 38.6722 0Z" fill="white"/>
<path d="M39.8343 8.02963C39.7304 7.96937 39.6037 7.97197 39.4992 8.03171L28.7268 14.3699C28.6405 14.4198 28.5808 14.5081 28.5662 14.6078C28.5533 14.707 28.5844 14.8083 28.6514 14.8816L39.4255 26.4956C39.4894 26.5647 39.5766 26.6016 39.6681 26.6016C39.7091 26.6016 39.7507 26.5938 39.7896 26.5792C39.9169 26.5289 40 26.4068 40 26.2696V8.31795C40 8.19847 39.9372 8.08886 39.8343 8.02963Z" fill="white"/>
<path d="M25.6223 16.4982C25.5163 16.3834 25.346 16.3579 25.2114 16.4369L20.8935 18.9776C20.3865 19.2758 19.7371 19.2784 19.227 18.9886L15.427 16.8176C15.3013 16.7465 15.1428 16.7636 15.0369 16.8623L0.606732 30.2473C0.529849 30.3189 0.491408 30.4223 0.502836 30.5267C0.514265 30.6312 0.575044 30.7247 0.665953 30.7771C0.890368 30.9091 1.10699 30.9719 1.32725 30.9719H38.2898C38.4223 30.9719 38.5418 30.8935 38.5937 30.7719C38.6467 30.6514 38.6228 30.5106 38.5324 30.414L25.6223 16.4982Z" fill="white"/>
<path d="M11.8618 15.279C11.9397 15.2078 11.9787 15.1029 11.9673 14.9985C11.9558 14.8935 11.8935 14.8006 11.8021 14.7476L0.495065 8.28939C0.394286 8.23121 0.267013 8.23225 0.164156 8.29147C0.0623377 8.35069 0 8.4603 0 8.57822V25.5237C0 25.6551 0.0779221 25.7746 0.198442 25.8271C0.241039 25.8463 0.286234 25.8556 0.331948 25.8556C0.413506 25.8556 0.495065 25.825 0.557403 25.7668L11.8618 15.279Z" fill="white"/>
</svg>
