<svg width="50" height="50" viewBox="0 0 50 50" fill="none" xmlns="http://www.w3.org/2000/svg">
<path d="M49.9717 39.448C49.8524 38.7108 49.3903 38.0808 48.6981 37.7065L38.4588 31.6737L38.3745 31.6265C37.9609 31.4144 37.4824 31.3051 36.9909 31.3051C36.1331 31.3051 35.3138 31.6301 34.7452 32.2001L31.7231 35.2237C31.5938 35.3465 31.1724 35.5244 31.0445 35.5308C31.0095 35.528 27.5281 35.2772 21.1188 28.8672C14.7209 22.4708 14.4494 18.9786 14.4473 18.9786C14.4509 18.8001 14.6266 18.3801 14.7516 18.2501L17.3287 15.6736C18.2366 14.7636 18.5087 13.255 17.9702 12.0865L12.2787 1.37715C11.8652 0.525715 11.0616 0 10.1701 0C9.53943 0 8.93086 0.261429 8.45514 0.736431L1.43012 7.74574C0.75655 8.41574 0.176548 9.58717 0.050119 10.53C-0.0113098 10.9807 -1.25774 21.7393 13.4923 36.4915C26.0145 49.0123 35.7788 49.9851 38.4752 49.9851C39.0552 49.9851 39.3931 49.9437 39.4581 49.9344C40.3981 49.8087 41.5681 49.2301 42.2374 48.5594L49.2567 41.5408C49.8296 40.9651 50.091 40.2044 49.9717 39.448Z" fill="white"/>
</svg>
